<svg xmlns="http://www.w3.org/2000/svg" viewBox="0 0 512 512">
  <!-- Minimalist Thai Parliament Spire Icon -->
  <!-- Color: Deep Navy (#1e3a8a) on transparent background -->
  
  <g fill="none" stroke="#1e3a8a" stroke-linecap="round" stroke-linejoin="round">
    <!-- Central Spire Top -->
    <path d="M 256 50 L 256 20" stroke-width="8"/>
    <circle cx="256" cy="15" r="8" fill="#1e3a8a"/>
    
    <!-- Upper Spire Crown -->
    <path d="M 256 50 L 230 90 L 282 90 Z" stroke-width="6" fill="#1e3a8a"/>
    
    <!-- Main Spire Structure -->
    <!-- Top tier -->
    <path d="M 220 90 L 240 150 L 272 150 L 292 90 Z" stroke-width="5"/>
    
    <!-- Second tier -->
    <path d="M 235 150 L 220 210 L 292 210 L 277 150 Z" stroke-width="5"/>
    
    <!-- Third tier (wider) -->
    <path d="M 215 210 L 205 280 L 307 280 L 297 210 Z" stroke-width="5"/>
    
    <!-- Main building body -->
    <rect x="190" y="280" width="132" height="100" stroke-width="5"/>
    
    <!-- Architectural details - vertical columns -->
    <line x1="215" y1="280" x2="215" y2="380" stroke-width="3"/>
    <line x1="245" y1="280" x2="245" y2="380" stroke-width="3"/>
    <line x1="267" y1="280" x2="267" y2="380" stroke-width="3"/>
    <line x1="297" y1="280" x2="297" y2="380" stroke-width="3"/>
    
    <!-- Side wings (simplified) -->
    <!-- Left wing -->
    <rect x="120" y="320" width="70" height="60" stroke-width="4"/>
    <line x1="135" y1="320" x2="135" y2="380" stroke-width="2"/>
    <line x1="160" y1="320" x2="160" y2="380" stroke-width="2"/>
    
    <!-- Right wing -->
    <rect x="322" y="320" width="70" height="60" stroke-width="4"/>
    <line x1="337" y1="320" x2="337" y2="380" stroke-width="2"/>
    <line x1="362" y1="320" x2="362" y2="380" stroke-width="2"/>
    
    <!-- Base platform -->
    <path d="M 100 380 L 110 410 L 402 410 L 412 380 Z" stroke-width="5"/>
    
    <!-- Ground line -->
    <line x1="80" y1="410" x2="432" y2="410" stroke-width="6"/>
    
    <!-- Decorative roof elements on main building -->
    <path d="M 185 280 L 190 260 L 322 260 L 327 280" stroke-width="4"/>
    
    <!-- Thai architectural roof peaks (small triangular elements) -->
    <path d="M 220 260 L 225 245 L 230 260" stroke-width="3" fill="#1e3a8a"/>
    <path d="M 252 260 L 256 240 L 260 260" stroke-width="3" fill="#1e3a8a"/>
    <path d="M 282 260 L 287 245 L 292 260" stroke-width="3" fill="#1e3a8a"/>
  </g>
</svg>
